<svg xmlns="http://www.w3.org/2000/svg" fill="none" viewBox="0 0 120 25" height="25" width="120">
<path fill="#FDFAF0" d="M120 25H7.07129L0.0712891 18L0 18.0713V7.07129L0.0712891 7.14258L7.14258 0.0712891L7.07129 0H120V25Z"></path>
<path fill="#D3AF37" d="M23.78 18.182C21.932 18.182 20.56 16.824 20.56 14.864H22.212C22.212 15.928 22.856 16.656 23.78 16.656C24.634 16.656 25.236 16.068 25.236 15.242C25.236 12.946 20.686 14.472 20.686 10.832C20.686 9.18 21.904 8.018 23.598 8.018C25.46 8.018 26.636 9.334 26.636 11.126H24.998C24.984 10.216 24.41 9.558 23.584 9.558C22.828 9.558 22.282 10.09 22.282 10.776C22.282 13.072 26.832 11.308 26.86 15.242C26.874 16.992 25.544 18.182 23.78 18.182ZM28.4318 18V8.2H31.2598C33.1078 8.2 34.3958 9.348 34.3958 11.07C34.3958 12.834 33.1218 14.122 31.2878 14.122H30.0838V18H28.4318ZM30.0838 12.596H31.1898C32.1418 12.596 32.7438 11.994 32.7438 11.126C32.7438 10.314 32.1418 9.74 31.1898 9.74H30.0838V12.596ZM35.6916 8.2H40.7036V9.754H37.3436V12.134H40.2696V13.632H37.3436V16.446H40.7036V18H35.6916V8.2ZM46.6527 18.182C43.8247 18.182 41.6687 15.97 41.6687 13.086C41.6687 10.188 43.8247 8.018 46.6527 8.018C49.0047 8.018 50.9227 9.516 51.2447 11.616H49.4527C49.1307 10.426 47.9687 9.572 46.6527 9.572C44.7767 9.572 43.3627 11.042 43.3627 13.086C43.3627 15.13 44.7767 16.628 46.6527 16.628C47.9827 16.628 49.1587 15.718 49.4667 14.444H51.2587C50.8807 16.67 48.9627 18.182 46.6527 18.182ZM52.6857 8.2H54.3377V18H52.6857V8.2ZM55.4538 18L58.7718 8.2H60.3258L63.6158 18H61.8518L61.2358 15.998H57.7918L57.1758 18H55.4538ZM58.1278 14.472H60.8298L59.4998 10.37L58.1278 14.472ZM64.7443 8.2H66.3963V16.446H69.7703V18H64.7443V8.2ZM78.3594 18.182C75.5314 18.182 73.3054 15.942 73.3054 13.1C73.3054 10.244 75.5314 8.018 78.3594 8.018C81.1874 8.018 83.3994 10.244 83.3994 13.1C83.3994 15.942 81.1874 18.182 78.3594 18.182ZM74.9994 13.1C74.9994 15.074 76.4694 16.628 78.3594 16.628C80.2354 16.628 81.7194 15.074 81.7194 13.1C81.7194 11.126 80.2354 9.572 78.3594 9.572C76.4694 9.572 74.9994 11.126 74.9994 13.1ZM84.9514 8.2H89.9634V9.754H86.6034V12.148H89.5294V13.702H86.6034V18H84.9514V8.2ZM91.3635 8.2H96.3755V9.754H93.0155V12.148H95.9415V13.702H93.0155V18H91.3635V8.2ZM97.7756 8.2H102.788V9.754H99.4276V12.134H102.354V13.632H99.4276V16.446H102.788V18H97.7756V8.2ZM104.406 18V8.2H107.276C109.152 8.2 110.412 9.404 110.412 10.902C110.412 11.924 109.922 12.736 109.124 13.212C109.95 13.66 110.384 14.486 110.384 15.522V18H108.76V15.704C108.76 14.542 108.172 14.066 107.01 14.066H106.044V18H104.406ZM106.044 12.61H107.178C108.13 12.61 108.76 12.036 108.76 11.14C108.76 10.3 108.13 9.74 107.178 9.74H106.044V12.61Z"></path>
<circle fill="#D3AF37" r="2.5" cy="12.5" cx="10.5"></circle>
</svg>
